<?xml version="1.0" encoding="utf-8"?>
<!-- Generator: Adobe Illustrator 16.0.0, SVG Export Plug-In . SVG Version: 6.00 Build 0)  -->
<!DOCTYPE svg PUBLIC "-//W3C//DTD SVG 1.1//EN" "http://www.w3.org/Graphics/SVG/1.1/DTD/svg11.dtd">
<svg version="1.1" id="a2942aa7-bf0d-42c0-bc52-bf4c952347c5"
	 xmlns="http://www.w3.org/2000/svg" xmlns:xlink="http://www.w3.org/1999/xlink" x="0px" y="0px" width="925.497px"
	 height="645.184px" viewBox="0 0 925.497 645.184" enable-background="new 0 0 925.497 645.184" xml:space="preserve">
<path fill="#F2F2F2" d="M253.145,500.528l-3.797-2.36c-0.362-0.223-0.719-0.465-1.081-0.694
	c19.672-3.376,32.882-22.061,29.505-41.732c-2.36-13.75-12.422-24.912-25.853-28.682l0.187,14.895l-8.181-16.198h-0.115
	c-19.935-0.933-36.85,14.472-37.782,34.407c0,0.001,0,0.003,0,0.006c-0.036,0.688,0,1.37,0,2.053
	c-2.843-3.248-5.434-6.731-7.142-10.548c-3.459-7.721-3.526-16.476-3.254-27.108c0.543-21.076,1.455-42.31,2.639-63.477
	c17.647-1.965,31.251-16.461,32.095-34.196c0.048-1.104,0.03-2.198,0-3.278c0-0.271,0-0.543-0.042-0.809
	c-0.072-1.051-0.169-2.09-0.332-3.115c0-0.17-0.061-0.333-0.091-0.496c-0.145-0.869-0.326-1.727-0.531-2.578
	c-0.079-0.313-0.157-0.604-0.242-0.947c-0.253-0.918-0.531-1.812-0.857-2.723c-0.108-0.296-0.235-0.604-0.35-0.882
	c-0.253-0.658-0.531-1.31-0.827-1.95c-0.157-0.338-0.308-0.676-0.471-1.008c-0.048-0.085-0.079-0.176-0.127-0.26l0,0
	c-7.873-15.556-25.737-23.264-42.455-18.318l0.242,19.38l-8.09-16.011c-13.654,7.822-20.637,23.613-17.237,38.978h-0.036
	c0.054,0.259,0.133,0.5,0.193,0.76c0.114,0.478,0.235,0.948,0.368,1.419c0.169,0.604,0.362,1.208,0.562,1.812
	c0.151,0.44,0.295,0.888,0.465,1.328c0.247,0.641,0.525,1.262,0.803,1.884c0.163,0.362,0.308,0.736,0.483,1.093
	c0.459,0.938,0.958,1.85,1.498,2.734c0.187,0.314,0.398,0.604,0.604,0.912c0.387,0.604,0.773,1.207,1.208,1.77
	c0.26,0.355,0.538,0.693,0.809,1.044c0.398,0.501,0.803,0.996,1.208,1.474c0.296,0.344,0.604,0.67,0.912,1.002
	c0.447,0.465,0.899,0.918,1.371,1.364c0.308,0.296,0.604,0.604,0.948,0.882c0.531,0.471,1.086,0.924,1.648,1.364
	c0.284,0.218,0.562,0.452,0.851,0.67c0.857,0.604,1.739,1.208,2.65,1.812c0.169,0.108,0.356,0.193,0.525,0.296
	c0.767,0.446,1.54,0.869,2.336,1.262c0.344,0.169,0.694,0.313,1.044,0.471c0.652,0.296,1.31,0.604,1.986,0.833
	c0.393,0.151,0.791,0.29,1.208,0.429c0.664,0.224,1.34,0.429,2.022,0.604c0.398,0.107,0.803,0.223,1.208,0.319
	c0.736,0.175,1.491,0.32,2.252,0.452l0.145,0.031c-0.495,8.928-0.938,17.86-1.328,26.8c-8.721-17.936-30.329-25.405-48.265-16.686
	c-0.639,0.311-1.269,0.64-1.889,0.988l6.388,17.509l-13.155-12.679c-7.045,6.441-11.245,15.417-11.677,24.952
	c-0.168,3.346,0.141,6.697,0.918,9.956c4.552,19.427,23.991,31.485,43.418,26.933c9.705-2.274,18.039-8.457,23.03-17.086
	c0,0.906-0.06,1.812-0.084,2.724c-0.241,9.382-0.543,21.059,4.136,31.485c3.169,7.063,8.265,12.799,13.282,17.942
	c3.278,3.351,6.678,6.587,10.161,9.721c3.426,4.607,7.9,8.332,13.053,10.868c5.724,4.412,11.652,8.561,17.78,12.388l3.828,2.379
	c3.441,2.132,6.967,4.323,10.421,6.599c-0.604-0.061-1.208-0.126-1.812-0.157c-15.722-0.731-30.112,8.79-35.584,23.546l22.58,18.372
	l-24.838-5.759c0.025,19.969,16.234,36.137,36.204,36.112c5.404-0.007,10.738-1.226,15.609-3.564
	c-0.556,0.7-1.115,1.396-1.678,2.088c-1.111,1.381-2.208,2.754-3.291,4.118c-14.695,18.607-18.783,36.278-11.507,49.748l8.851-4.781
	c-7.082-13.107,3.568-29.892,10.548-38.73c1.063-1.348,2.141-2.696,3.236-4.045c9.4-11.694,20.038-24.904,19.779-41.133
	C295.944,527.056,272.187,512.35,253.145,500.528z"/>
<path fill="#F2F2F2" d="M602.717,426.872l3.799-2.36c0.361-0.223,0.718-0.465,1.08-0.694c-19.67-3.387-32.87-22.078-29.483-41.748
	c2.366-13.746,12.431-24.902,25.86-28.666l-0.188,14.894l8.182-16.198h0.103c19.934-0.932,36.85,14.473,37.782,34.407
	c0,0.002,0,0.004,0,0.006c0.036,0.688,0,1.37,0,2.053c2.843-3.248,5.434-6.731,7.143-10.547c3.459-7.722,3.525-16.477,3.254-27.108
	c-0.543-21.076-1.455-42.311-2.639-63.478c-17.646-1.965-31.252-16.46-32.095-34.196c-0.049-1.105-0.03-2.198,0-3.278
	c0-0.272,0-0.543,0.042-0.809c0.072-1.05,0.169-2.089,0.333-3.115c0-0.169,0.06-0.332,0.089-0.495
	c0.146-0.87,0.327-1.727,0.532-2.578c0.079-0.314,0.157-0.604,0.241-0.948c0.254-0.917,0.531-1.811,0.857-2.723
	c0.108-0.296,0.236-0.604,0.351-0.882c0.253-0.658,0.53-1.31,0.826-1.95c0.157-0.338,0.308-0.676,0.478-1.008
	c0.043-0.084,0.072-0.175,0.121-0.259l0,0c7.868-15.547,25.719-23.255,42.43-18.324l-0.24,19.38l8.09-16.012
	c13.659,7.822,20.645,23.616,17.243,38.984h0.036c-0.055,0.26-0.133,0.501-0.193,0.761c-0.114,0.477-0.236,0.948-0.368,1.419
	c-0.17,0.604-0.362,1.208-0.562,1.811c-0.15,0.441-0.296,0.888-0.465,1.329c-0.248,0.64-0.525,1.262-0.804,1.883
	c-0.162,0.362-0.308,0.737-0.482,1.093c-0.458,0.938-0.958,1.85-1.497,2.735c-0.188,0.314-0.398,0.604-0.604,0.912
	c-0.387,0.604-0.772,1.208-1.208,1.769c-0.259,0.356-0.538,0.694-0.809,1.045c-0.398,0.501-0.804,0.996-1.208,1.473
	c-0.296,0.345-0.604,0.67-0.911,1.002c-0.441,0.465-0.899,0.917-1.37,1.364c-0.309,0.296-0.604,0.604-0.948,0.881
	c-0.532,0.471-1.087,0.924-1.648,1.365c-0.284,0.217-0.562,0.453-0.852,0.67c-0.857,0.604-1.739,1.208-2.65,1.781
	c-0.169,0.108-0.356,0.193-0.525,0.296c-0.766,0.447-1.54,0.869-2.337,1.262c-0.343,0.169-0.693,0.314-1.043,0.471
	c-0.652,0.295-1.311,0.604-1.987,0.833c-0.393,0.151-0.79,0.29-1.208,0.429c-0.663,0.223-1.339,0.429-2.021,0.604
	c-0.398,0.109-0.804,0.224-1.208,0.32c-0.737,0.175-1.491,0.32-2.252,0.453h-0.146c0.496,8.932,0.939,17.865,1.329,26.799
	c8.721-17.935,30.329-25.405,48.265-16.685c0.639,0.311,1.269,0.64,1.889,0.988l-6.388,17.509l13.144-12.619
	c7.044,6.442,11.244,15.417,11.676,24.953c0.169,3.346-0.141,6.697-0.917,9.956c-4.553,19.427-23.992,31.484-43.418,26.933
	c-9.706-2.275-18.039-8.457-23.03-17.086c0,0.905,0.065,1.811,0.085,2.723c0.241,9.383,0.543,21.059-4.136,31.485
	c-3.17,7.063-8.266,12.8-13.282,17.943c-3.279,3.351-6.678,6.587-10.161,9.72c-3.427,4.607-7.901,8.334-13.054,10.868
	c-5.724,4.413-11.651,8.561-17.779,12.389l-3.828,2.378c-3.441,2.132-6.968,4.323-10.422,6.6c0.604-0.061,1.208-0.127,1.812-0.157
	c15.723-0.732,30.113,8.79,35.586,23.546l-22.581,18.372l24.839-5.76c-0.026,19.97-16.235,36.138-36.204,36.113
	c-5.404-0.008-10.738-1.226-15.609-3.565c0.556,0.701,1.114,1.396,1.678,2.089c1.111,1.381,2.208,2.753,3.291,4.117
	c14.695,18.607,18.782,36.279,11.507,49.749l-8.851-4.781c7.082-13.108-3.568-29.892-10.547-38.73
	c-1.063-1.348-2.142-2.697-3.237-4.045c-9.387-11.664-20.025-24.887-19.766-41.103C559.917,453.4,583.651,438.693,602.717,426.872z"
	/>
<circle fill="#F2F2F2" cx="233.088" cy="328.457" r="18.409"/>
<circle fill="#F2F2F2" cx="170.088" cy="540.457" r="11.409"/>
<rect x="379.997" y="21.5" fill="#F2F2F2" width="140" height="2"/>
<rect x="417.997" y="3.5" fill="#F2F2F2" width="2" height="18.5"/>
<rect x="478.997" y="3.5" fill="#F2F2F2" width="2" height="18.5"/>
<rect x="605.997" y="505.5" fill="#F2F2F2" width="140" height="2"/>
<rect x="643.997" y="487.5" fill="#F2F2F2" width="2" height="18.5"/>
<rect x="704.997" y="487.5" fill="#F2F2F2" width="2" height="18.5"/>
<rect x="612.997" y="200.5" fill="#F2F2F2" width="140" height="2"/>
<rect x="650.997" y="182.5" fill="#F2F2F2" width="2" height="18.5"/>
<rect x="711.997" y="182.5" fill="#F2F2F2" width="2" height="18.5"/>
<rect x="612.997" y="128.5" fill="#F2F2F2" width="140" height="2"/>
<rect x="650.997" y="110.5" fill="#F2F2F2" width="2" height="18.5"/>
<rect x="711.997" y="110.5" fill="#F2F2F2" width="2" height="18.5"/>
<rect x="305.997" y="138.5" fill="#F2F2F2" width="140" height="2"/>
<rect x="343.997" y="120.5" fill="#F2F2F2" width="2" height="18.5"/>
<rect x="404.997" y="120.5" fill="#F2F2F2" width="2" height="18.5"/>
<rect x="203.997" y="91.5" fill="#F2F2F2" width="140" height="2"/>
<rect x="241.997" y="73.5" fill="#F2F2F2" width="2" height="18.5"/>
<rect x="302.997" y="73.5" fill="#F2F2F2" width="2" height="18.5"/>
<rect x="140.997" y="276.5" fill="#F2F2F2" width="140" height="2"/>
<rect x="178.997" y="258.5" fill="#F2F2F2" width="2" height="18.5"/>
<rect x="239.997" y="258.5" fill="#F2F2F2" width="2" height="18.5"/>
<rect x="70.997" y="480.5" fill="#F2F2F2" width="140" height="2"/>
<rect x="108.997" y="462.5" fill="#F2F2F2" width="2" height="18.5"/>
<rect x="169.997" y="462.5" fill="#F2F2F2" width="2" height="18.5"/>
<rect x="732.997" y="396.5" fill="#F2F2F2" width="140" height="2"/>
<rect x="770.997" y="378.5" fill="#F2F2F2" width="2" height="18.5"/>
<rect x="831.997" y="378.5" fill="#F2F2F2" width="2" height="18.5"/>
<rect x="691.997" y="268.5" fill="#F2F2F2" width="140" height="2"/>
<rect x="791.997" y="270" fill="#F2F2F2" width="2" height="18.5"/>
<rect x="730.997" y="270" fill="#F2F2F2" width="2" height="18.5"/>
<rect x="13.997" y="118.5" fill="#F2F2F2" width="140" height="2"/>
<rect x="113.997" y="120" fill="#F2F2F2" width="2" height="18.5"/>
<rect x="52.997" y="120" fill="#F2F2F2" width="2" height="18.5"/>
<rect x="22.997" y="380.5" fill="#F2F2F2" width="140" height="2"/>
<rect x="122.997" y="382" fill="#F2F2F2" width="2" height="18.5"/>
<rect x="61.997" y="382" fill="#F2F2F2" width="2" height="18.5"/>
<rect x="463.997" y="53.5" fill="#F2F2F2" width="140" height="2"/>
<rect x="563.997" y="55" fill="#F2F2F2" width="2" height="18.5"/>
<rect x="502.997" y="55" fill="#F2F2F2" width="2" height="18.5"/>
<rect x="70.997" y="192.5" fill="#F2F2F2" width="140" height="2"/>
<rect x="108.997" y="174.5" fill="#F2F2F2" width="2" height="18.5"/>
<rect x="169.997" y="174.5" fill="#F2F2F2" width="2" height="18.5"/>
<path fill="#3F3D56" d="M233.497,173v471h436V173H233.497z M451.497,207c-8.284,0-15-6.716-15-15s6.716-15,15-15s15,6.716,15,15
	S459.781,207,451.497,207L451.497,207L451.497,207z"/>
<path fill="#3F3D56" d="M37.255,603.797c6.914,25.559,30.596,41.387,30.596,41.387s12.472-25.609,5.558-51.168
	c-6.914-25.557-30.596-41.387-30.596-41.387S30.341,578.239,37.255,603.797z"/>
<path fill="#0078FF" d="M47.415,598.305c18.972,18.469,21.29,46.859,21.29,46.859s-28.443-1.555-47.415-20.021
	C2.317,606.674,0,578.284,0,578.284S28.442,579.836,47.415,598.305z"/>
<rect x="16.497" y="643" fill="#3F3D56" width="909" height="2"/>
<path fill="#3F3D56" d="M191.997,581.338c-0.011-9.07-5.58-17.207-14.031-20.5c11.325-4.4,16.938-17.15,12.537-28.475
	c-4.401-11.326-17.149-16.939-28.475-12.537c-11.325,4.4-16.938,17.148-12.537,28.475c2.235,5.752,6.784,10.301,12.537,12.537
	c-11.322,4.396-16.937,17.139-12.54,28.459c2.234,5.756,6.785,10.307,12.54,12.541c-11.325,4.4-16.938,17.15-12.537,28.475
	c4.401,11.326,17.149,16.938,28.475,12.537s16.938-17.15,12.537-28.475c-2.235-5.752-6.785-10.303-12.537-12.537
	C186.417,598.545,191.986,590.409,191.997,581.338z M149.997,540.338c-0.009-11.047,8.938-20.008,19.983-20.018
	c11.046-0.008,20.008,8.938,20.017,19.984c0.008,9.313-6.414,17.398-15.487,19.5c-2.976-0.623-6.049-0.623-9.026,0
	C156.428,557.7,150.013,549.637,149.997,540.338z M189.997,622.338c0.009,11.045-8.938,20.008-19.983,20.018
	c-11.045,0.008-20.007-8.938-20.017-19.984c-0.008-9.313,6.414-17.398,15.487-19.5c2.977,0.623,6.05,0.623,9.026,0
	C183.566,604.977,189.981,613.04,189.997,622.338z M174.51,600.805c-2.976-0.623-6.049-0.623-9.026,0
	c-10.751-2.48-17.456-13.207-14.976-23.959c1.718-7.445,7.531-13.258,14.976-14.975c2.977,0.623,6.05,0.623,9.026,0
	c10.752,2.48,17.457,13.207,14.976,23.959C187.768,593.274,181.955,599.088,174.51,600.805z"/>
<path fill="#F2F2F2" d="M510.997,271.5h-229c-3.866,0-7-3.134-7-7s3.134-7,7-7h229c3.867,0,7,3.134,7,7S514.864,271.5,510.997,271.5
	z"/>
<path fill="#F2F2F2" d="M510.997,343.5h-229c-3.866,0-7-3.135-7-7c0-3.867,3.134-7,7-7h229c3.867,0,7,3.133,7,7
	C517.997,340.366,514.864,343.5,510.997,343.5z"/>
<path fill="#F2F2F2" d="M510.997,415.5h-229c-3.866,0-7-3.135-7-7c0-3.867,3.134-7,7-7h229c3.867,0,7,3.133,7,7
	C517.997,412.366,514.864,415.5,510.997,415.5z"/>
<path fill="#F2F2F2" d="M510.997,487.5h-229c-3.866,0-7-3.135-7-7c0-3.867,3.134-7,7-7h229c3.867,0,7,3.133,7,7
	C517.997,484.366,514.864,487.5,510.997,487.5z"/>
<path fill="#F2F2F2" d="M510.997,559.5h-229c-3.866,0-7-3.135-7-7c0-3.867,3.134-7,7-7h229c3.867,0,7,3.133,7,7
	C517.997,556.366,514.864,559.5,510.997,559.5z"/>
<path fill="#0078FF" d="M470.997,271.5h-190c-3.866,0-7-3.134-7-7s3.134-7,7-7h190c3.867,0,7,3.134,7,7S474.864,271.5,470.997,271.5
	z"/>
<path fill="#0078FF" d="M411.997,343.5h-131c-3.866,0-7-3.135-7-7c0-3.867,3.134-7,7-7h131c3.866,0,7,3.133,7,7
	C418.997,340.366,415.863,343.5,411.997,343.5z"/>
<path fill="#0078FF" d="M339.997,415.5h-59c-3.866,0-7-3.135-7-7c0-3.867,3.134-7,7-7l0,0h59c3.866,0,7,3.133,7,7
	C346.997,412.366,343.863,415.5,339.997,415.5z"/>
<path fill="#0078FF" d="M488.997,487.5h-208c-3.866,0-7-3.135-7-7c0-3.867,3.134-7,7-7h208c3.867,0,7,3.133,7,7
	C495.997,484.366,492.864,487.5,488.997,487.5z"/>
<path fill="#0078FF" d="M442.997,559.5h-162c-3.866,0-7-3.135-7-7c0-3.867,3.134-7,7-7h162c3.866,0,7,3.133,7,7
	C449.997,556.366,446.863,559.5,442.997,559.5z"/>
<rect x="603.997" y="257.5" fill="#0078FF" width="2" height="14"/>
<path fill="#0078FF" d="M620.997,272.5c-4.418,0-8-3.582-8-8s3.582-8,8-8s8,3.582,8,8
	C628.993,268.916,625.413,272.495,620.997,272.5z M620.997,258.5c-3.313,0-6,2.687-6,6s2.688,6,6,6c3.314,0,6-2.687,6-6
	C626.993,261.188,624.309,258.503,620.997,258.5z"/>
<rect x="603.997" y="329.5" fill="#0078FF" width="2" height="14"/>
<path fill="#0078FF" d="M620.997,344.5c-4.418,0-8-3.582-8-8c0-4.419,3.582-8,8-8s8,3.581,8,8
	C628.993,340.917,625.413,344.495,620.997,344.5z M620.997,330.5c-3.313,0-6,2.686-6,6c0,3.313,2.688,6,6,6c3.314,0,6-2.688,6-6
	C626.993,333.188,624.309,330.503,620.997,330.5z"/>
<rect x="603.997" y="401.5" fill="#0078FF" width="2" height="14"/>
<path fill="#0078FF" d="M620.997,416.5c-4.418,0-8-3.582-8-8s3.582-8,8-8s8,3.582,8,8
	C628.993,412.917,625.413,416.495,620.997,416.5z M620.997,402.5c-3.313,0-6,2.686-6,6c0,3.313,2.688,6,6,6c3.314,0,6-2.688,6-6
	C626.993,405.188,624.309,402.504,620.997,402.5z"/>
<rect x="603.997" y="473.5" fill="#0078FF" width="2" height="14"/>
<path fill="#0078FF" d="M620.997,488.5c-4.418,0-8-3.582-8-8s3.582-8,8-8s8,3.582,8,8
	C628.993,484.917,625.413,488.495,620.997,488.5z M620.997,474.5c-3.313,0-6,2.686-6,6c0,3.313,2.688,6,6,6c3.314,0,6-2.688,6-6
	C626.993,477.188,624.309,474.504,620.997,474.5z"/>
<rect x="603.997" y="545.5" fill="#0078FF" width="2" height="14"/>
<path fill="#0078FF" d="M620.997,560.5c-4.418,0-8-3.582-8-8s3.582-8,8-8s8,3.582,8,8
	C628.993,556.917,625.413,560.495,620.997,560.5z M620.997,546.5c-3.313,0-6,2.686-6,6c0,3.313,2.688,6,6,6c3.314,0,6-2.688,6-6
	C626.993,549.188,624.309,546.504,620.997,546.5z"/>
<circle fill="#0078FF" cx="620.997" cy="264.5" r="4"/>
<circle fill="#0078FF" cx="620.997" cy="480.5" r="4"/>
<circle fill="#0078FF" cx="620.997" cy="552.5" r="4"/>
<circle fill="#3F3D56" cx="451.497" cy="192" r="7"/>
<circle fill="#3F3D56" cx="451.497" cy="7" r="7"/>
<rect x="450.497" y="7" fill="#3F3D56" width="2" height="185"/>
</svg>
