<?xml version="1.0" encoding="utf-8"?>
<!-- Generator: Adobe Illustrator 16.0.0, SVG Export Plug-In . SVG Version: 6.00 Build 0)  -->
<!DOCTYPE svg PUBLIC "-//W3C//DTD SVG 1.1//EN" "http://www.w3.org/Graphics/SVG/1.1/DTD/svg11.dtd">
<svg version="1.1" id="e4110a9f-f3dd-43c7-a69f-77d1c85ae255"
	 xmlns="http://www.w3.org/2000/svg" xmlns:xlink="http://www.w3.org/1999/xlink" x="0px" y="0px" width="1137.93px"
	 height="741.16px" viewBox="0 0 1137.93 741.16" enable-background="new 0 0 1137.93 741.16" xml:space="preserve">
<path fill="#F2F2F2" d="M223.43,472.27l-6.29-3.908c-0.6-0.37-1.19-0.771-1.79-1.15c32.583-5.593,54.463-36.54,48.871-69.124
	c-3.909-22.772-20.575-41.262-42.821-47.506l0.31,24.67l-13.55-26.83h-0.19c-33.019-1.543-61.036,23.972-62.58,56.99
	c0,0.003,0,0.007,0,0.01c-0.06,1.142,0,2.271,0,3.4c-4.71-5.38-9-11.15-11.83-17.472c-5.73-12.789-5.84-27.29-5.39-44.898
	c0.9-34.91,2.41-70.08,4.37-105.14c29.229-3.254,51.763-27.263,53.16-56.64c0.08-1.83,0.05-3.64,0-5.43c0-0.45,0-0.9-0.07-1.34
	c-0.12-1.74-0.28-3.46-0.55-5.16c0-0.28-0.1-0.55-0.15-0.82c-0.24-1.44-0.54-2.86-0.88-4.27c-0.13-0.52-0.26-1-0.4-1.57
	c-0.42-1.52-0.88-3-1.42-4.51c-0.18-0.49-0.39-1-0.58-1.46c-0.42-1.09-0.88-2.17-1.37-3.23c-0.26-0.56-0.51-1.12-0.78-1.67
	c-0.08-0.14-0.13-0.29-0.21-0.43l0,0c-13.04-25.766-42.629-38.532-70.32-30.34l0.4,32.1l-13.4-26.52
	c-22.616,12.957-34.182,39.111-28.55,64.56h-0.06c0.09,0.43,0.22,0.83,0.32,1.26c0.19,0.79,0.39,1.57,0.61,2.35c0.28,1,0.6,2,0.93,3
	c0.25,0.73,0.49,1.47,0.77,2.2c0.41,1.06,0.87,2.09,1.33,3.12c0.27,0.6,0.51,1.22,0.8,1.81c0.76,1.554,1.586,3.063,2.48,4.53
	c0.31,0.52,0.66,1,1,1.51c0.64,1,1.28,2,2,2.93c0.43,0.59,0.89,1.15,1.34,1.73c0.66,0.83,1.33,1.65,2,2.44
	c0.49,0.57,1,1.11,1.51,1.66c0.74,0.77,1.49,1.52,2.27,2.26c0.51,0.49,1,1,1.57,1.46c0.88,0.78,1.8,1.53,2.73,2.26
	c0.47,0.36,0.93,0.75,1.41,1.11c1.42,1,2.88,2,4.39,3c0.28,0.18,0.59,0.32,0.87,0.49c1.27,0.74,2.55,1.44,3.87,2.09
	c0.57,0.28,1.15,0.52,1.73,0.78c1.08,0.49,2.17,1,3.29,1.38c0.65,0.25,1.31,0.48,2,0.71c1.1,0.37,2.22,0.71,3.35,1
	c0.66,0.18,1.33,0.37,2,0.53c1.22,0.29,2.47,0.53,3.73,0.75l0.24,0.05c-0.82,14.787-1.553,29.583-2.2,44.39
	c-14.444-29.707-50.235-42.08-79.942-27.637c-1.059,0.515-2.102,1.061-3.128,1.637l10.58,29l-21.79-21
	C7.751,278.05,0.795,292.915,0.08,308.71c-0.279,5.541,0.233,11.093,1.52,16.49c7.54,32.177,39.737,52.149,71.915,44.609
	c16.074-3.767,29.878-14.008,38.146-28.299c0,1.5-0.1,3-0.14,4.51c-0.4,15.54-0.9,34.88,6.85,52.15c5.25,11.7,13.69,21.2,22,29.72
	c5.43,5.552,11.06,10.91,16.83,16.102c5.675,7.631,13.086,13.802,21.62,18c9.48,7.31,19.3,14.18,29.45,20.52l6.34,3.94
	c5.7,3.53,11.54,7.16,17.26,10.93c-1-0.1-2-0.21-3-0.26c-26.041-1.214-49.875,14.558-58.94,39l37.4,30.43l-41.14-9.54
	c0.042,33.076,26.889,59.856,59.966,59.814c8.951-0.011,17.786-2.028,25.854-5.904c-0.92,1.16-1.847,2.313-2.78,3.46
	c-1.84,2.287-3.657,4.562-5.45,6.82c-24.34,30.818-31.11,60.09-19.06,82.398l14.66-7.92c-11.73-21.71,5.91-49.51,17.47-64.148
	c1.76-2.233,3.546-4.467,5.36-6.7c15.57-19.37,33.19-41.25,32.76-68.13C294.32,516.21,254.97,491.85,223.43,472.27z"/>
<path fill="#F2F2F2" d="M802.439,350.27l6.291-3.91c0.6-0.37,1.188-0.77,1.789-1.15c-32.58-5.61-54.443-36.569-48.834-69.149
	c3.92-22.766,20.591-41.245,42.834-47.48l-0.311,24.67l13.55-26.83h0.17c33.02-1.543,61.036,23.972,62.58,56.99
	c0,0.003,0,0.006,0,0.01c0.062,1.14,0,2.27,0,3.4c4.71-5.38,9-11.15,11.83-17.47c5.73-12.79,5.84-27.29,5.392-44.9
	c-0.9-34.91-2.41-70.08-4.37-105.14c-29.229-3.254-51.765-27.263-53.16-56.64c-0.08-1.83-0.05-3.64,0-5.43c0-0.45,0-0.9,0.069-1.34
	c0.119-1.74,0.279-3.46,0.551-5.16c0-0.28,0.1-0.55,0.148-0.82c0.24-1.44,0.54-2.86,0.88-4.27c0.132-0.52,0.262-1,0.4-1.57
	c0.42-1.52,0.88-3,1.42-4.51c0.18-0.49,0.392-1,0.58-1.46c0.42-1.09,0.88-2.17,1.37-3.23c0.26-0.56,0.51-1.12,0.79-1.67
	c0.07-0.14,0.12-0.29,0.2-0.43l0,0c13.034-25.752,42.6-38.519,70.28-30.351l-0.398,32.1L929.89,8.01
	c22.624,12.955,34.195,39.116,28.562,64.57h0.06c-0.09,0.43-0.22,0.83-0.319,1.26c-0.189,0.79-0.391,1.57-0.609,2.35
	c-0.28,1-0.6,2-0.93,3c-0.25,0.73-0.49,1.47-0.771,2.2c-0.41,1.06-0.87,2.09-1.33,3.12c-0.27,0.6-0.51,1.22-0.8,1.81
	c-0.76,1.554-1.587,3.063-2.479,4.53c-0.311,0.52-0.659,1-1,1.51c-0.641,1-1.279,2-2,2.93c-0.431,0.59-0.891,1.15-1.341,1.73
	c-0.659,0.83-1.33,1.65-2,2.44c-0.489,0.57-1,1.11-1.51,1.66c-0.729,0.77-1.49,1.52-2.27,2.26c-0.512,0.49-1,1-1.57,1.46
	c-0.88,0.78-1.8,1.53-2.73,2.26c-0.47,0.36-0.93,0.75-1.409,1.11c-1.42,1-2.881,2-4.391,2.95c-0.28,0.18-0.59,0.32-0.87,0.49
	c-1.27,0.74-2.55,1.44-3.87,2.09c-0.568,0.28-1.148,0.52-1.729,0.78c-1.08,0.49-2.17,1-3.29,1.38c-0.65,0.25-1.31,0.48-2,0.71
	c-1.1,0.37-2.22,0.71-3.35,1c-0.66,0.18-1.33,0.37-2,0.53c-1.222,0.29-2.472,0.53-3.73,0.75h-0.24
	c0.82,14.793,1.555,29.59,2.2,44.39c14.443-29.707,50.234-42.08,79.941-27.637c1.059,0.515,2.103,1.061,3.129,1.637l-10.58,29
	l21.77-20.9c11.67,10.67,18.625,25.535,19.341,41.33c0.278,5.541-0.232,11.093-1.521,16.49
	c-7.54,32.177-39.737,52.149-71.914,44.609c-16.075-3.767-29.879-14.008-38.146-28.299c0,1.5,0.109,3,0.141,4.51
	c0.4,15.54,0.9,34.88-6.85,52.15c-5.25,11.7-13.69,21.2-22,29.72c-5.432,5.55-11.062,10.91-16.83,16.1
	c-5.677,7.631-13.087,13.802-21.62,18c-9.48,7.31-19.3,14.18-29.45,20.52l-6.34,3.94c-5.7,3.53-11.54,7.159-17.261,10.93
	c1-0.101,2-0.21,3-0.26c26.041-1.214,49.876,14.558,58.939,39l-37.399,30.43l41.141-9.54c-0.042,33.076-26.89,59.856-59.966,59.814
	c-8.951-0.012-17.786-2.028-25.854-5.904c0.92,1.16,1.848,2.313,2.78,3.46c1.84,2.287,3.656,4.562,5.45,6.82
	c24.34,30.818,31.108,60.09,19.06,82.398l-14.66-7.92c11.73-21.71-5.909-49.51-17.47-64.148c-1.76-2.233-3.547-4.467-5.359-6.7
	c-15.551-19.32-33.171-41.22-32.739-68.08C731.55,394.21,770.86,369.85,802.439,350.27z"/>
<ellipse fill="#F2F2F2" cx="568.965" cy="708.16" rx="495.18" ry="33"/>
<polygon fill="#2F2E41" points="659.38,709.16 481.19,706.88 481.71,702.31 490.33,626.92 646.82,626.92 658.33,702.31 
	659.21,708.02 "/>
<polygon opacity="0.1" enable-background="new    " points="659.21,708.02 570.28,708.02 481.19,706.88 481.71,702.31 
	658.33,702.31 "/>
<rect x="451.49" y="703.45" fill="#3F3D56" width="236.45" height="5.71"/>
<path fill="#3F3D56" d="M913.54,174.11c0.039-8.212-6.587-14.901-14.8-14.94l0,0H238.42c-8.212,0.039-14.838,6.728-14.8,14.94l0,0
	v400.26h689.92V174.11z"/>
<path fill="#3F3D56" d="M223.62,570.38v46.88c0,8.174,6.626,14.8,14.8,14.8h660.32c8.174,0,14.8-6.626,14.8-14.8v-46.88H223.62z"/>
<rect x="252.17" y="184.3" fill="#2F2E41" width="636.23" height="359.812"/>
<path fill="#0078FF" d="M571.97,614.27c4.734,0.007,9.207-2.166,12.13-5.89l0,0c0.441-0.562,0.843-1.151,1.2-1.77l-8.46-1.392
	l9.15,0.07c1.77-3.86,1.878-8.277,0.3-12.22l-12.28,6.37l11.32-8.32c-4.282-7.361-13.722-9.857-21.083-5.574
	c-7.361,4.282-9.856,13.721-5.574,21.082c0.355,0.61,0.752,1.196,1.188,1.752l0,0C562.779,612.098,567.243,614.27,571.97,614.27z"/>
<polygon opacity="0.1" enable-background="new    " points="587.42,632.06 658.51,703.45 647.6,632.06 "/>
<path fill="#3F3D56" d="M778.35,680.78l19.15-11.2c-2.594-4.417-5.902-8.374-9.79-11.71L751.6,669.1l28.29-16.64
	c-22.279-12.205-50.236-4.038-62.442,18.243c-3.712,6.776-5.657,14.38-5.656,22.105c0,25.41,20.6,26.29,46,26.29s46-0.88,46-26.29
	c0.008-6.427-1.335-12.783-3.94-18.658L778.35,680.78z"/>
<rect x="280.43" y="323.11" opacity="0.3" fill="#0078FF" enable-background="new    " width="21.15" height="6.42"/>
<rect x="844.78" y="323.3" opacity="0.3" fill="#0078FF" enable-background="new    " width="21.148" height="6.42"/>
<rect x="280.62" y="368.24" opacity="0.3" fill="#0078FF" enable-background="new    " width="21.15" height="6.42"/>
<rect x="280.81" y="413.37" opacity="0.3" fill="#0078FF" enable-background="new    " width="21.15" height="6.42"/>
<rect x="281" y="458.49" opacity="0.3" fill="#0078FF" enable-background="new    " width="21.15" height="6.42"/>
<g opacity="0.2">
	<rect x="301.58" y="326.2" fill="#F2F2F2" width="6" height="0.25"/>
	<path fill="#F2F2F2" d="M826.61,326.45h-11.79v-0.25h11.79V326.45z M803.02,326.45H791.23v-0.25h11.788L803.02,326.45
		L803.02,326.45z M779.43,326.45h-11.8v-0.25h11.8V326.45z M755.84,326.45h-11.8v-0.25h11.8V326.45z M732.25,326.45h-11.8v-0.25
		h11.8V326.45z M708.65,326.45h-11.79v-0.25h11.79V326.45z M685.06,326.45h-11.8v-0.25h11.8V326.45z M661.47,326.45h-11.8v-0.25
		h11.8V326.45z M637.88,326.45h-11.8v-0.25h11.8V326.45z M614.28,326.45h-11.79v-0.25h11.79V326.45z M590.689,326.45h-11.801v-0.25
		h11.801V326.45z M567.1,326.45h-11.8v-0.25h11.8V326.45z M543.51,326.45h-11.8v-0.25h11.8V326.45z M519.91,326.45h-11.79v-0.25
		h11.79V326.45z M496.319,326.45H484.53v-0.25h11.79L496.319,326.45z M472.729,326.45h-11.76v-0.25h11.8L472.729,326.45z
		 M449.14,326.45h-11.8v-0.25h11.8V326.45z M425.54,326.45h-11.79v-0.25h11.79V326.45z M401.95,326.45h-11.79v-0.25h11.81
		L401.95,326.45z M378.359,326.45h-11.801v-0.25h11.801V326.45z M354.77,326.45h-11.8v-0.25h11.8V326.45z M331.17,326.45h-11.79
		v-0.25h11.79V326.45z"/>
	<rect x="838.41" y="326.2" fill="#F2F2F2" width="6" height="0.25"/>
	<rect x="301.58" y="326.2" fill="#F2F2F2" width="6" height="0.25"/>
	<path fill="#F2F2F2" d="M826.61,326.45h-11.79v-0.25h11.79V326.45z M803.02,326.45H791.23v-0.25h11.788L803.02,326.45
		L803.02,326.45z M779.43,326.45h-11.8v-0.25h11.8V326.45z M755.84,326.45h-11.8v-0.25h11.8V326.45z M732.25,326.45h-11.8v-0.25
		h11.8V326.45z M708.65,326.45h-11.79v-0.25h11.79V326.45z M685.06,326.45h-11.8v-0.25h11.8V326.45z M661.47,326.45h-11.8v-0.25
		h11.8V326.45z M637.88,326.45h-11.8v-0.25h11.8V326.45z M614.28,326.45h-11.79v-0.25h11.79V326.45z M590.689,326.45h-11.801v-0.25
		h11.801V326.45z M567.1,326.45h-11.8v-0.25h11.8V326.45z M543.51,326.45h-11.8v-0.25h11.8V326.45z M519.91,326.45h-11.79v-0.25
		h11.79V326.45z M496.319,326.45H484.53v-0.25h11.79L496.319,326.45z M472.729,326.45h-11.76v-0.25h11.8L472.729,326.45z
		 M449.14,326.45h-11.8v-0.25h11.8V326.45z M425.54,326.45h-11.79v-0.25h11.79V326.45z M401.95,326.45h-11.79v-0.25h11.81
		L401.95,326.45z M378.359,326.45h-11.801v-0.25h11.801V326.45z M354.77,326.45h-11.8v-0.25h11.8V326.45z M331.17,326.45h-11.79
		v-0.25h11.79V326.45z"/>
	<rect x="838.41" y="326.2" fill="#F2F2F2" width="6" height="0.25"/>
</g>
<rect x="280.43" y="278.11" opacity="0.3" fill="#0078FF" enable-background="new    " width="21.15" height="6.42"/>
<rect x="844.78" y="278.3" opacity="0.3" fill="#0078FF" enable-background="new    " width="21.148" height="6.42"/>
<g opacity="0.2">
	<rect x="301.58" y="281.2" fill="#F2F2F2" width="6" height="0.25"/>
	<path fill="#F2F2F2" d="M826.61,281.45h-11.79v-0.25h11.79V281.45z M803.02,281.45H791.23v-0.25h11.788L803.02,281.45
		L803.02,281.45z M779.43,281.45h-11.8v-0.25h11.8V281.45z M755.84,281.45h-11.8v-0.25h11.8V281.45z M732.25,281.45h-11.8v-0.25
		h11.8V281.45z M708.65,281.45h-11.79v-0.25h11.79V281.45z M685.06,281.45h-11.8v-0.25h11.8V281.45z M661.47,281.45h-11.8v-0.25
		h11.8V281.45z M637.88,281.45h-11.8v-0.25h11.8V281.45z M614.28,281.45h-11.79v-0.25h11.79V281.45z M590.689,281.45h-11.801v-0.25
		h11.801V281.45z M567.1,281.45h-11.8v-0.25h11.8V281.45z M543.51,281.45h-11.8v-0.25h11.8V281.45z M519.91,281.45h-11.79v-0.25
		h11.79V281.45z M496.319,281.45H484.53v-0.25h11.79L496.319,281.45z M472.729,281.45h-11.76v-0.25h11.8L472.729,281.45z
		 M449.14,281.45h-11.8v-0.25h11.8V281.45z M425.54,281.45h-11.79v-0.25h11.79V281.45z M401.95,281.45h-11.79v-0.25h11.81
		L401.95,281.45z M378.359,281.45h-11.801v-0.25h11.801V281.45z M354.77,281.45h-11.8v-0.25h11.8V281.45z M331.17,281.45h-11.79
		v-0.25h11.79V281.45z"/>
	<rect x="838.41" y="281.2" fill="#F2F2F2" width="6" height="0.25"/>
</g>
<rect x="844.78" y="368.24" opacity="0.3" fill="#0078FF" enable-background="new    " width="21.148" height="6.42"/>
<g opacity="0.2">
	<rect x="301.58" y="371.141" fill="#F2F2F2" width="6" height="0.25"/>
	<path fill="#F2F2F2" d="M826.61,371.38h-11.79v-0.25h11.79V371.38z M803.02,371.38H791.23v-0.25h11.788L803.02,371.38
		L803.02,371.38z M779.43,371.38h-11.8v-0.25h11.8V371.38z M755.84,371.38h-11.8v-0.25h11.8V371.38z M732.25,371.38h-11.8v-0.25
		h11.8V371.38z M708.65,371.38h-11.79v-0.25h11.79V371.38z M685.06,371.38h-11.8v-0.25h11.8V371.38z M661.47,371.38h-11.8v-0.25
		h11.8V371.38z M637.88,371.38h-11.8v-0.25h11.8V371.38z M614.28,371.38h-11.79v-0.25h11.79V371.38z M590.689,371.38h-11.801v-0.25
		h11.801V371.38z M567.1,371.38h-11.8v-0.25h11.8V371.38z M543.51,371.38h-11.8v-0.25h11.8V371.38z M519.91,371.38h-11.79v-0.25
		h11.79V371.38z M496.319,371.38H484.53v-0.25h11.79L496.319,371.38z M472.729,371.38h-11.76v-0.25h11.8L472.729,371.38z
		 M449.14,371.38h-11.8v-0.25h11.8V371.38z M425.54,371.38h-11.79v-0.25h11.79V371.38z M401.95,371.38h-11.79v-0.25h11.81
		L401.95,371.38z M378.359,371.38h-11.801v-0.25h11.801V371.38z M354.77,371.38h-11.8v-0.25h11.8V371.38z M331.17,371.38h-11.79
		v-0.25h11.79V371.38z"/>
	<rect x="838.41" y="371.141" fill="#F2F2F2" width="6" height="0.25"/>
	<rect x="301.58" y="371.141" fill="#F2F2F2" width="6" height="0.25"/>
	<path fill="#F2F2F2" d="M826.61,371.38h-11.79v-0.25h11.79V371.38z M803.02,371.38H791.23v-0.25h11.788L803.02,371.38
		L803.02,371.38z M779.43,371.38h-11.8v-0.25h11.8V371.38z M755.84,371.38h-11.8v-0.25h11.8V371.38z M732.25,371.38h-11.8v-0.25
		h11.8V371.38z M708.65,371.38h-11.79v-0.25h11.79V371.38z M685.06,371.38h-11.8v-0.25h11.8V371.38z M661.47,371.38h-11.8v-0.25
		h11.8V371.38z M637.88,371.38h-11.8v-0.25h11.8V371.38z M614.28,371.38h-11.79v-0.25h11.79V371.38z M590.689,371.38h-11.801v-0.25
		h11.801V371.38z M567.1,371.38h-11.8v-0.25h11.8V371.38z M543.51,371.38h-11.8v-0.25h11.8V371.38z M519.91,371.38h-11.79v-0.25
		h11.79V371.38z M496.319,371.38H484.53v-0.25h11.79L496.319,371.38z M472.729,371.38h-11.76v-0.25h11.8L472.729,371.38z
		 M449.14,371.38h-11.8v-0.25h11.8V371.38z M425.54,371.38h-11.79v-0.25h11.79V371.38z M401.95,371.38h-11.79v-0.25h11.81
		L401.95,371.38z M378.359,371.38h-11.801v-0.25h11.801V371.38z M354.77,371.38h-11.8v-0.25h11.8V371.38z M331.17,371.38h-11.79
		v-0.25h11.79V371.38z"/>
	<rect x="838.41" y="371.141" fill="#F2F2F2" width="6" height="0.25"/>
</g>
<rect x="844.78" y="413.18" opacity="0.3" fill="#0078FF" enable-background="new    " width="21.148" height="6.42"/>
<g opacity="0.2">
	<rect x="301.58" y="416.07" fill="#F2F2F2" width="6" height="0.25"/>
	<path fill="#F2F2F2" d="M826.61,416.32h-11.79v-0.25h11.79V416.32z M803.02,416.32H791.23v-0.25h11.788L803.02,416.32
		L803.02,416.32z M779.43,416.32h-11.8v-0.25h11.8V416.32z M755.84,416.32h-11.8v-0.25h11.8V416.32z M732.25,416.32h-11.8v-0.25
		h11.8V416.32z M708.65,416.32h-11.79v-0.25h11.79V416.32z M685.06,416.32h-11.8v-0.25h11.8V416.32z M661.47,416.32h-11.8v-0.25
		h11.8V416.32z M637.88,416.32h-11.8v-0.25h11.8V416.32z M614.28,416.32h-11.79v-0.25h11.79V416.32z M590.689,416.32h-11.801v-0.25
		h11.801V416.32z M567.1,416.32h-11.8v-0.25h11.8V416.32z M543.51,416.32h-11.8v-0.25h11.8V416.32z M519.91,416.32h-11.79v-0.25
		h11.79V416.32z M496.319,416.32H484.53v-0.25h11.79L496.319,416.32z M472.729,416.32h-11.76v-0.25h11.8L472.729,416.32z
		 M449.14,416.32h-11.8v-0.25h11.8V416.32z M425.54,416.32h-11.79v-0.25h11.79V416.32z M401.95,416.32h-11.79v-0.25h11.81
		L401.95,416.32z M378.359,416.32h-11.801v-0.25h11.801V416.32z M354.77,416.32h-11.8v-0.25h11.8V416.32z M331.17,416.32h-11.79
		v-0.25h11.79V416.32z"/>
	<rect x="838.41" y="416.07" fill="#F2F2F2" width="6" height="0.25"/>
	<rect x="301.58" y="416.07" fill="#F2F2F2" width="6" height="0.25"/>
	<path fill="#F2F2F2" d="M826.61,416.32h-11.79v-0.25h11.79V416.32z M803.02,416.32H791.23v-0.25h11.788L803.02,416.32
		L803.02,416.32z M779.43,416.32h-11.8v-0.25h11.8V416.32z M755.84,416.32h-11.8v-0.25h11.8V416.32z M732.25,416.32h-11.8v-0.25
		h11.8V416.32z M708.65,416.32h-11.79v-0.25h11.79V416.32z M685.06,416.32h-11.8v-0.25h11.8V416.32z M661.47,416.32h-11.8v-0.25
		h11.8V416.32z M637.88,416.32h-11.8v-0.25h11.8V416.32z M614.28,416.32h-11.79v-0.25h11.79V416.32z M590.689,416.32h-11.801v-0.25
		h11.801V416.32z M567.1,416.32h-11.8v-0.25h11.8V416.32z M543.51,416.32h-11.8v-0.25h11.8V416.32z M519.91,416.32h-11.79v-0.25
		h11.79V416.32z M496.319,416.32H484.53v-0.25h11.79L496.319,416.32z M472.729,416.32h-11.76v-0.25h11.8L472.729,416.32z
		 M449.14,416.32h-11.8v-0.25h11.8V416.32z M425.54,416.32h-11.79v-0.25h11.79V416.32z M401.95,416.32h-11.79v-0.25h11.81
		L401.95,416.32z M378.359,416.32h-11.801v-0.25h11.801V416.32z M354.77,416.32h-11.8v-0.25h11.8V416.32z M331.17,416.32h-11.79
		v-0.25h11.79V416.32z"/>
	<rect x="838.41" y="416.07" fill="#F2F2F2" width="6" height="0.25"/>
</g>
<rect x="844.78" y="458.11" opacity="0.3" fill="#0078FF" enable-background="new    " width="21.148" height="6.42"/>
<g opacity="0.2">
	<rect x="301.58" y="461.01" fill="#F2F2F2" width="6" height="0.25"/>
	<path fill="#F2F2F2" d="M826.61,461.26h-11.79v-0.25h11.79V461.26z M803.02,461.26H791.23v-0.25h11.788L803.02,461.26
		L803.02,461.26z M779.43,461.26h-11.8v-0.25h11.8V461.26z M755.84,461.26h-11.8v-0.25h11.8V461.26z M732.25,461.26h-11.8v-0.25
		h11.8V461.26z M708.65,461.26h-11.79v-0.25h11.79V461.26z M685.06,461.26h-11.8v-0.25h11.8V461.26z M661.47,461.26h-11.8v-0.25
		h11.8V461.26z M637.88,461.26h-11.8v-0.25h11.8V461.26z M614.28,461.26h-11.79v-0.25h11.79V461.26z M590.689,461.26h-11.801v-0.25
		h11.801V461.26z M567.1,461.26h-11.8v-0.25h11.8V461.26z M543.51,461.26h-11.8v-0.25h11.8V461.26z M519.91,461.26h-11.79v-0.25
		h11.79V461.26z M496.319,461.26H484.53v-0.25h11.79L496.319,461.26z M472.729,461.26h-11.76v-0.25h11.8L472.729,461.26z
		 M449.14,461.26h-11.8v-0.25h11.8V461.26z M425.54,461.26h-11.79v-0.25h11.79V461.26z M401.95,461.26h-11.79v-0.25h11.81
		L401.95,461.26z M378.359,461.26h-11.801v-0.25h11.801V461.26z M354.77,461.26h-11.8v-0.25h11.8V461.26z M331.17,461.26h-11.79
		v-0.25h11.79V461.26z"/>
	<rect x="838.41" y="461.01" fill="#F2F2F2" width="6" height="0.25"/>
	<rect x="301.58" y="461.01" fill="#F2F2F2" width="6" height="0.25"/>
	<path fill="#F2F2F2" d="M826.61,461.26h-11.79v-0.25h11.79V461.26z M803.02,461.26H791.23v-0.25h11.788L803.02,461.26
		L803.02,461.26z M779.43,461.26h-11.8v-0.25h11.8V461.26z M755.84,461.26h-11.8v-0.25h11.8V461.26z M732.25,461.26h-11.8v-0.25
		h11.8V461.26z M708.65,461.26h-11.79v-0.25h11.79V461.26z M685.06,461.26h-11.8v-0.25h11.8V461.26z M661.47,461.26h-11.8v-0.25
		h11.8V461.26z M637.88,461.26h-11.8v-0.25h11.8V461.26z M614.28,461.26h-11.79v-0.25h11.79V461.26z M590.689,461.26h-11.801v-0.25
		h11.801V461.26z M567.1,461.26h-11.8v-0.25h11.8V461.26z M543.51,461.26h-11.8v-0.25h11.8V461.26z M519.91,461.26h-11.79v-0.25
		h11.79V461.26z M496.319,461.26H484.53v-0.25h11.79L496.319,461.26z M472.729,461.26h-11.76v-0.25h11.8L472.729,461.26z
		 M449.14,461.26h-11.8v-0.25h11.8V461.26z M425.54,461.26h-11.79v-0.25h11.79V461.26z M401.95,461.26h-11.79v-0.25h11.81
		L401.95,461.26z M378.359,461.26h-11.801v-0.25h11.801V461.26z M354.77,461.26h-11.8v-0.25h11.8V461.26z M331.17,461.26h-11.79
		v-0.25h11.79V461.26z"/>
	<rect x="838.41" y="461.01" fill="#F2F2F2" width="6" height="0.25"/>
</g>
<line fill="none" stroke="#F2F2F2" stroke-width="0.1" stroke-miterlimit="10" x1="370.53" y1="281.51" x2="370.53" y2="461.7"/>
<line fill="none" stroke="#F2F2F2" stroke-width="0.1" stroke-miterlimit="10" x1="443.53" y1="281.51" x2="443.53" y2="461.7"/>
<line fill="none" stroke="#F2F2F2" stroke-width="0.1" stroke-miterlimit="10" x1="516.53" y1="281.51" x2="516.53" y2="461.7"/>
<line fill="none" stroke="#F2F2F2" stroke-width="0.1" stroke-miterlimit="10" x1="589.53" y1="281.51" x2="589.53" y2="461.7"/>
<line fill="none" stroke="#F2F2F2" stroke-width="0.1" stroke-miterlimit="10" x1="662.53" y1="281.51" x2="662.53" y2="461.7"/>
<line fill="none" stroke="#F2F2F2" stroke-width="0.1" stroke-miterlimit="10" x1="735.53" y1="281.51" x2="735.53" y2="461.7"/>
<line fill="none" stroke="#F2F2F2" stroke-width="0.1" stroke-miterlimit="10" x1="808.53" y1="281.51" x2="808.53" y2="461.7"/>
<path opacity="0.3" fill="#0078FF" enable-background="new    " d="M824.32,269.35l-8.352,8.7c-0.169,0.182-0.311,0.388-0.42,0.61
	l-5.18,10.67c-0.422,0.877-1.34,1.405-2.311,1.33l-1.659-0.13c-0.987-0.07-1.826-0.749-2.102-1.7l-1.6-5.54
	c-0.362-1.258-1.676-1.983-2.935-1.621c-0.744,0.214-1.336,0.778-1.587,1.511l-2.688,7.88c-0.326,0.964-1.232,1.612-2.25,1.61
	H782.97c-1.164-0.004-2.153-0.851-2.34-2l-2.899-18.15c-0.2-1.293-1.411-2.179-2.705-1.979c-0.758,0.117-1.411,0.594-1.756,1.278
	L758.4,301.17c-0.591,1.168-2.017,1.638-3.186,1.048c-0.103-0.052-0.201-0.111-0.296-0.178l-8.84-6.24
	c-0.999-0.701-2.365-0.537-3.17,0.38l-3.352,3.87c-0.099,0.114-0.186,0.238-0.26,0.37l-8.938,15.47
	c-0.465,0.81-1.362,1.269-2.29,1.17l-5.45-0.54c-0.381-0.037-0.766,0.018-1.12,0.16l-4.88,1.95c-1.173,0.443-2.488-0.105-3-1.25
	l-1.07-2.45c-0.395-0.898-1.3-1.462-2.28-1.42l-5.58,0.26c-0.698,0.03-1.349,0.371-1.77,0.93l-1.58,2.06
	c-0.795,1.04-2.283,1.237-3.322,0.442c-0.368-0.281-0.646-0.665-0.798-1.102l-2-5.65c-0.434-1.235-1.786-1.885-3.021-1.452
	c-0.229,0.081-0.445,0.195-0.641,0.341l-9.5,7.12l-10.5,8.47c-0.731,0.588-1.744,0.69-2.58,0.26l-8.148-4.23
	c-0.438-0.224-0.935-0.308-1.42-0.24l-16.511,2.31c-0.979,0.132-1.775,0.857-2,1.82l-2.931,12.73
	c-0.293,1.275-1.565,2.072-2.841,1.778c-0.372-0.085-0.719-0.26-1.009-0.508l0,0c-1-0.853-2.502-0.734-3.355,0.266
	c-0.123,0.145-0.229,0.304-0.313,0.474l-2.25,4.51c-0.344,0.676-0.983,1.15-1.73,1.28l-5.109,0.85
	c-0.328,0.058-0.643,0.184-0.92,0.37l-8.05,5.36c-0.388,0.261-0.844,0.4-1.311,0.4h-3.771c-0.946,0.002-1.805-0.561-2.181-1.43
	l-1-2.39c-0.526-1.198-1.925-1.743-3.123-1.216c-0.021,0.008-0.038,0.017-0.057,0.026l-8.74,4.09
	c-0.716,0.336-1.551,0.295-2.229-0.11l-4-2.41c-0.369-0.221-0.791-0.338-1.221-0.34h-8.83c-0.466,0.001-0.922,0.141-1.31,0.4
	l-8.811,5.85c-0.689,0.458-1.569,0.523-2.319,0.17l-4-1.89c-0.958-0.447-2.097-0.207-2.79,0.59l-1.9,2.17
	c-0.852,0.986-2.343,1.094-3.328,0.242c-0.211-0.182-0.387-0.399-0.521-0.642l-0.57-1c-0.639-1.143-2.083-1.551-3.225-0.912
	c-0.02,0.01-0.037,0.021-0.056,0.031l-6.931,4.11c-0.73,0.419-1.629,0.419-2.359,0l-2.859-1.59c-0.655-0.369-1.446-0.402-2.131-0.09
	l-2.72,1.24c-1.205,0.54-2.619,0.001-3.159-1.203c-0.033-0.077-0.064-0.156-0.091-0.237l-1.761-5.24
	c-0.308-0.987-1.226-1.657-2.26-1.65h-2.562c-0.401,0.001-0.799-0.102-1.148-0.3l-9.83-5.39c-0.817-0.442-1.817-0.368-2.562,0.19
	l-7.21,5.4c-0.408,0.307-0.906,0.472-1.42,0.47h-9.068c-0.468,0-0.924,0.14-1.312,0.4l-1.7,1.13
	c-1.087,0.729-2.559,0.438-3.288-0.649c-0.056-0.084-0.105-0.171-0.15-0.261l-0.41-0.81c-0.396-0.808-1.22-1.32-2.12-1.32h-4.55
	c-0.732,0.001-1.422,0.341-1.87,0.92l-2.82,3.61c-0.805,1.032-2.295,1.215-3.325,0.41c-0.215-0.167-0.398-0.37-0.544-0.6
	l-0.801-1.25c-0.687-1.089-2.119-1.427-3.22-0.76l-2.34,1.4c-0.814,0.487-1.84,0.443-2.61-0.11l-9.43-6.83
	c-0.169-0.119-0.351-0.22-0.54-0.3l-7.37-2.83c-1.192-0.434-2.515,0.148-3,1.32l-5.13,12.5c-0.074,0.176-0.125,0.361-0.15,0.55
	l-1.658,11.26c-0.073,0.477-0.29,0.919-0.62,1.27l-3.512,3.77c-0.748,0.79-1.937,0.976-2.89,0.45l-6.09-3.38
	c-1.144-0.639-2.586-0.232-3.227,0.91c-0.069,0.125-0.128,0.255-0.175,0.39l-3.858,11.29c-0.089,0.247-0.133,0.507-0.131,0.771
	v7.119c-0.003,0.943-0.563,1.796-1.431,2.17l-6.188,2.74c-0.698,0.301-1.497,0.248-2.15-0.141l-4.66-2.739
	c-0.464-0.272-1.007-0.378-1.54-0.3l-8.17,1.17c-0.956,0.137-1.897-0.323-2.38-1.16l-1.38-2.359c-0.298-0.51-0.776-0.889-1.34-1.061
	l-3.71-1.16c-0.885-0.281-1.851-0.02-2.472,0.67l-5.148,5.721c-0.406,0.448-0.967,0.728-1.57,0.779l-7.6,0.641
	c-0.354,0.021-0.695,0.123-1,0.299l-13.25,7.622c-0.848,0.479-1.899,0.396-2.66-0.211l-3.76-3c-0.423-0.335-0.942-0.518-1.48-0.521
	h-14.24c-0.72,0.003-1.401-0.325-1.85-0.89l-3.59-4.48c-0.82-1.021-2.313-1.183-3.332-0.362c-0.101,0.08-0.192,0.168-0.278,0.263
	l-4.319,4.801c-0.392,0.434-0.607,0.996-0.609,1.58v59.64c0,1.31,1.061,2.37,2.37,2.37h513.73c1.311,0,2.37-1.062,2.37-2.37
	c0-0.003,0-0.007,0-0.01l-0.14-188.33c0.02-1.314-1.031-2.396-2.345-2.415C825.408,268.616,824.776,268.878,824.32,269.35z"/>
<path opacity="0.3" fill="#0078FF" enable-background="new    " d="M823.86,346.58l-7.74,5.16c-0.271,0.183-0.512,0.409-0.71,0.67
	l-4.812,6.35c-0.592,0.763-1.515,1.195-2.479,1.16l-1.57-0.08c-1.099-0.055-2.075-0.718-2.53-1.72l-1-2.13
	c-0.656-1.473-2.384-2.133-3.855-1.476c-0.598,0.267-1.088,0.727-1.395,1.306l-2,3.83c-0.508,0.958-1.506,1.554-2.59,1.55h-9.92
	c-1.346,0.006-2.521-0.912-2.84-2.22l-2.38-9.53c-0.393-1.57-1.981-2.526-3.552-2.134c-0.628,0.157-1.188,0.517-1.588,1.024
	L758.6,366.42c-0.83,1.058-2.275,1.41-3.5,0.85l-9.188-4.15c-0.98-0.459-2.135-0.34-3,0.31l-3.29,2.43
	c-0.157,0.118-0.302,0.251-0.432,0.4l-8.68,9.61c-0.591,0.678-1.461,1.046-2.358,1l-5.671-0.36c-0.31-0.018-0.618,0.01-0.92,0.08
	l-5.109,1.311c-1.194,0.313-2.455-0.16-3.15-1.18l-0.58-0.861c-0.563-0.819-1.505-1.299-2.5-1.27l-5.7,0.17
	c-0.656,0.012-1.29,0.252-1.788,0.68l-1.4,1.17c-1.239,1.041-3.088,0.881-4.128-0.358c-0.122-0.146-0.23-0.303-0.322-0.47
	L695.4,373.1c-0.75-1.358-2.431-1.897-3.83-1.229l-9.59,4.609l-10.61,5.479c-0.699,0.36-1.515,0.421-2.26,0.17l-8.45-2.8
	c-0.38-0.125-0.781-0.172-1.18-0.141l-16.36,1.391c-1.132,0.117-2.102,0.863-2.5,1.93l-2.37,6.62
	c-0.548,1.522-2.227,2.313-3.749,1.765c-0.142-0.051-0.279-0.111-0.411-0.185l-0.1-0.05c-1.255-0.696-2.83-0.373-3.71,0.76
	l-1.86,2.38c-0.494,0.62-1.213,1.019-2,1.11l-5.12,0.55c-0.288,0.029-0.571,0.101-0.84,0.21l-8.11,3.47
	c-0.363,0.15-0.755,0.229-1.148,0.23h-3.9c-0.969-0.001-1.874-0.479-2.42-1.28l-0.56-0.82c-0.722-1.052-2.039-1.517-3.261-1.148
	l-9.091,2.75c-0.623,0.188-1.292,0.163-1.898-0.07l-4.222-1.62c-0.317-0.125-0.656-0.192-1-0.198h-9.06
	c-0.394-0.001-0.781,0.081-1.14,0.238l-9,3.82c-0.634,0.273-1.343,0.313-2,0.11l-4.45-1.33c-0.879-0.264-1.829-0.101-2.57,0.438
	l-1.95,1.432c-1.224,0.895-2.929,0.708-3.93-0.432l-0.29-0.33c-0.806-0.919-2.097-1.241-3.24-0.81l-7.25,2.77
	c-0.646,0.235-1.354,0.235-2,0l-3.18-1.14c-0.581-0.2-1.209-0.218-1.8-0.05l-3,0.87c-1.355,0.391-2.797-0.24-3.432-1.5l-1.119-2.25
	c-0.497-0.991-1.512-1.617-2.619-1.62h-2.602c-0.34,0.006-0.679-0.049-1-0.16l-10.09-3.54c-0.732-0.262-1.539-0.219-2.24,0.12
	l-7.369,3.54c-0.396,0.188-0.83,0.287-1.271,0.29h-9.31c-0.396,0.002-0.785,0.08-1.15,0.229l-1.9,0.82
	c-1.222,0.519-2.64,0.153-3.46-0.89l0,0c-0.554-0.714-1.405-1.131-2.31-1.13h-4.7c-0.678-0.001-1.335,0.23-1.86,0.658l-2.729,2.24
	c-1.163,0.964-2.87,0.877-3.93-0.2l-0.62-0.62c-0.818-0.822-2.046-1.086-3.13-0.67l-2.722,1.052c-0.743,0.276-1.566,0.247-2.29-0.08
	l-9.568-4.44c-0.169-0.08-0.349-0.142-0.53-0.18l-7.51-1.851c-1.215-0.305-2.487,0.203-3.16,1.26l-4.72,7.359
	c-0.182,0.283-0.313,0.594-0.392,0.92l-1.43,6.25c-0.172,0.714-0.599,1.34-1.2,1.762l-3.12,2.14c-0.771,0.531-1.75,0.657-2.63,0.34
	l-6.42-2.28c-1.389-0.489-2.925,0.127-3.59,1.44l-3.38,6.32c-0.224,0.426-0.339,0.898-0.34,1.38v2.85
	c-0.007,1.315-0.885,2.467-2.15,2.82l-5.62,1.56c-0.596,0.169-1.229,0.142-1.81-0.08l-4.9-1.85c-0.414-0.159-0.858-0.221-1.3-0.18
	l-8.45,0.77c-0.913,0.089-1.813-0.26-2.43-0.938l-1-1.11c-0.417-0.467-0.977-0.783-1.59-0.9l-3.852-0.778
	c-0.795-0.151-1.617,0.024-2.28,0.488l-5.068,3.61c-0.454,0.318-0.987,0.506-1.54,0.54l-7.771,0.41
	c-0.294,0.019-0.583,0.079-0.858,0.18l-13.49,5c-0.765,0.29-1.616,0.239-2.34-0.14l-3.9-2c-0.411-0.21-0.867-0.32-1.33-0.32h-14.5
	c-0.669,0-1.317-0.229-1.84-0.649l-3.51-2.811c-1.022-0.818-2.463-0.859-3.53-0.1l-3.76,2.68c-0.771,0.552-1.229,1.441-1.23,2.39
	v28.11c0,1.618,1.313,2.93,2.932,2.93h512.59c1.618,0,2.93-1.312,2.93-2.93l-0.14-109.77c0.021-1.618-1.273-2.947-2.892-2.969
	C824.93,346.084,824.352,346.254,823.86,346.58z"/>
<circle fill="#0078FF" cx="825.93" cy="345.84" r="7"/>
<path opacity="0.3" fill="#0078FF" enable-background="new    " d="M825.48,415.09l-9.512,3.17c-0.183,0.063-0.355,0.147-0.52,0.25
	l-5.221,3.45c-0.381,0.248-0.826,0.374-1.279,0.36l-3.25-0.08c-0.611-0.014-1.19-0.277-1.602-0.73l-2-2.2
	c-0.826-0.912-2.235-0.982-3.148-0.156c-0.01,0.009-0.021,0.019-0.03,0.026l-3.37,3.16c-0.409,0.393-0.953,0.61-1.52,0.61h-11.68
	c-0.85,0.005-1.627-0.478-2-1.24l-2.67-5.33c-0.551-1.102-1.891-1.547-2.992-0.995c-0.063,0.032-0.127,0.067-0.188,0.105
	l-16.53,10.47c-0.5,0.313-1.104,0.418-1.68,0.29l-11.32-2.55c-0.418-0.1-0.855-0.071-1.26,0.08l-4.13,1.528
	c-0.108,0.034-0.213,0.081-0.312,0.142l-9.13,5.06c-0.353,0.192-0.749,0.289-1.148,0.28l-6.76-0.22
	c-0.117-0.012-0.234-0.012-0.352,0l-6.5,0.83c-0.564,0.067-1.137-0.078-1.6-0.41l-1.32-1c-0.391-0.288-0.865-0.439-1.35-0.432
	l-7.131,0.102c-0.285,0-0.567,0.058-0.829,0.17l-3.2,1.35c-0.8,0.331-1.719,0.172-2.36-0.41l-2.62-2.318
	c-0.542-0.488-1.29-0.68-2-0.51l-10.938,2.64l-11.25,2.91c-0.305,0.063-0.617,0.063-0.92,0l-9.5-1.58c-0.153-0.01-0.309-0.01-0.46,0
	l-17.57,0.79c-0.684,0.03-1.313,0.373-1.71,0.93l-2.65,3.65c-0.542,0.759-1.501,1.099-2.398,0.85l-2.83-0.78
	c-0.609-0.159-1.259-0.059-1.79,0.28l-2.83,1.812c-0.326,0.2-0.697,0.317-1.08,0.34l-6,0.33c-0.113-0.011-0.228-0.011-0.34,0
	l-8.66,1.85c-0.155,0.031-0.313,0.048-0.47,0.05h-5.08c-0.473,0-0.932-0.149-1.312-0.43l-1.318-1
	c-0.471-0.351-1.062-0.498-1.642-0.41l-10.81,1.62c-0.249,0.04-0.502,0.04-0.75,0l-5.08-1c-0.141-0.015-0.28-0.015-0.42,0h-9.75
	c-0.153-0.015-0.309-0.015-0.46,0l-9.892,2.1c-0.264,0.052-0.534,0.052-0.8,0l-5.89-0.89c-0.371-0.051-0.749-0.01-1.102,0.12
	l-3.778,1.38c-0.616,0.23-1.304,0.171-1.87-0.16l-1.79-1c-0.455-0.269-0.992-0.359-1.51-0.26l-9,1.71c-0.27,0.05-0.543,0.05-0.812,0
	l-4.33-0.771c-0.234-0.034-0.475-0.034-0.71,0l-4.78,0.689c-0.691,0.106-1.395-0.124-1.89-0.62l-1.58-1.51
	c-0.422-0.413-0.988-0.646-1.58-0.65h-3.79c-0.126,0.012-0.253,0.012-0.38,0l-11.06-1.938c-0.301-0.065-0.61-0.065-0.91,0l-8.36,2
	c-0.17,0.04-0.345,0.061-0.52,0.06h-10.07c-0.152-0.015-0.307-0.015-0.46,0l-3.41,0.73c-0.574,0.159-1.188,0.087-1.71-0.2
	l-0.938-0.61c-0.359-0.228-0.775-0.35-1.2-0.35h-6.09c-0.289,0.001-0.574,0.059-0.841,0.17l-4.261,1.74
	c-0.594,0.248-1.267,0.223-1.84-0.07l-2.26-1.14c-0.438-0.221-0.938-0.29-1.42-0.2l-4.46,0.86c-0.305,0.063-0.617,0.063-0.92,0
	l-10.341-2.4h-0.229l-8.79-1.09c-0.586-0.066-1.174,0.099-1.64,0.46l-5,3.88c-0.28,0.217-0.503,0.498-0.65,0.82l-1.12,2.488
	c-0.256,0.555-0.725,0.979-1.3,1.182l-3.84,1.31c-0.355,0.13-0.738,0.16-1.11,0.09l-8.54-1.52c-0.689-0.119-1.396,0.092-1.91,0.569
	l-3.39,3.171c-0.449,0.422-0.703,1.013-0.7,1.63l0,0c0,1.109-0.818,2.05-1.92,2.199l-6.41,0.891c-0.238,0.04-0.48,0.04-0.72,0
	l-5.8-1.101c-0.173-0.021-0.349-0.021-0.521,0L385.12,455c-0.407,0.016-0.813-0.077-1.17-0.27l-1.7-0.932
	c-0.261-0.148-0.551-0.241-0.85-0.27l-5.092-0.512c-0.338-0.033-0.68,0.008-1,0.12l-6,2.13c-0.222,0.079-0.454,0.123-0.688,0.132
	l-8.53,0.229c-0.116-0.01-0.232-0.01-0.35,0l-14.45,2.67c-0.313,0.065-0.637,0.065-0.95,0l-4.92-1.26
	c-0.184-0.044-0.371-0.067-0.56-0.07H323.35c-0.283,0.003-0.565-0.051-0.83-0.16l-4.858-1.938c-0.509-0.194-1.071-0.194-1.58,0
	l-4.521,1.61c-0.889,0.311-1.481,1.147-1.479,2.09v1c-0.006,1.226,0.984,2.225,2.21,2.229c0.003,0,0.007,0,0.01,0h514
	c1.228,0,2.221-0.994,2.221-2.22c0-0.004,0-0.007,0-0.01l-0.131-42.271c0.049-1.229-0.909-2.267-2.142-2.313
	C825.988,414.975,825.729,415.011,825.48,415.09z"/>
<circle fill="#0078FF" cx="440.93" cy="392.84" r="7"/>
<circle fill="#0078FF" cx="776.93" cy="348.84" r="7"/>
<circle fill="#0078FF" cx="602.93" cy="395.84" r="7"/>
<circle fill="#0078FF" cx="693.93" cy="370.84" r="7"/>
<path fill="none" stroke="#0078FF" stroke-miterlimit="10" d="M829.41,349c-0.007-1.618-1.323-2.925-2.941-2.918
	c-0.572,0.002-1.132,0.172-1.607,0.488l-7.74,5.16c-0.271,0.183-0.512,0.41-0.71,0.67l-4.812,6.35
	c-0.592,0.763-1.515,1.195-2.479,1.16l-1.57-0.08c-1.099-0.055-2.075-0.718-2.529-1.72l-1-2.13
	c-0.657-1.473-2.385-2.133-3.856-1.476c-0.598,0.267-1.088,0.727-1.394,1.306l-2,3.83c-0.509,0.958-1.507,1.554-2.591,1.55h-9.92
	c-1.346,0.006-2.521-0.912-2.84-2.22l-2.38-9.53c-0.393-1.57-1.981-2.525-3.552-2.134c-0.628,0.156-1.188,0.517-1.588,1.024
	L759.6,366.41c-0.83,1.058-2.275,1.409-3.5,0.85l-9.188-4.15c-0.98-0.458-2.135-0.339-3,0.31l-3.29,2.43
	c-0.157,0.117-0.302,0.251-0.432,0.4l-8.68,9.609c-0.591,0.679-1.461,1.047-2.358,1l-5.671-0.359c-0.31-0.02-0.618,0.008-0.92,0.08
	l-5.109,1.311c-1.194,0.312-2.455-0.16-3.15-1.181l-0.58-0.86c-0.563-0.82-1.505-1.299-2.5-1.27l-5.7,0.17
	c-0.656,0.012-1.29,0.252-1.788,0.68l-1.4,1.17c-1.239,1.041-3.088,0.879-4.128-0.358c-0.122-0.146-0.23-0.304-0.322-0.472
	l-1.479-2.68c-0.75-1.359-2.431-1.898-3.83-1.23l-9.591,4.611l-10.609,5.479c-0.699,0.36-1.516,0.421-2.26,0.17l-8.45-2.8
	c-0.38-0.125-0.781-0.174-1.181-0.141l-16.359,1.399c-1.132,0.117-2.102,0.864-2.5,1.93l-2.37,6.62
	c-0.548,1.521-2.228,2.313-3.749,1.766c-0.143-0.051-0.279-0.112-0.411-0.186l-0.1-0.05c-1.255-0.696-2.83-0.373-3.71,0.76
	l-1.86,2.38c-0.494,0.62-1.213,1.02-2,1.11l-5.12,0.55c-0.288,0.029-0.571,0.1-0.84,0.21l-8.11,3.47
	c-0.363,0.15-0.755,0.229-1.148,0.23h-3.9c-0.969-0.001-1.874-0.479-2.42-1.28l-0.56-0.819c-0.722-1.053-2.039-1.518-3.261-1.149
	l-9.091,2.75c-0.623,0.188-1.292,0.163-1.898-0.07l-4.222-1.62c-0.317-0.125-0.656-0.192-1-0.198h-9.06
	c-0.394-0.001-0.781,0.081-1.141,0.238l-9,3.82c-0.633,0.273-1.342,0.313-2,0.11l-4.449-1.33c-0.879-0.264-1.829-0.101-2.57,0.438
	l-1.95,1.432c-1.224,0.895-2.929,0.708-3.93-0.432l-0.29-0.33c-0.806-0.919-2.097-1.241-3.24-0.81l-7.25,2.77
	c-0.646,0.235-1.354,0.235-2,0l-3.18-1.14c-0.581-0.2-1.209-0.218-1.8-0.05l-3,0.87c-1.355,0.391-2.797-0.24-3.432-1.5l-1.119-2.25
	c-0.497-0.991-1.512-1.617-2.619-1.62h-2.602c-0.34,0.006-0.679-0.049-1-0.16l-10.09-3.54c-0.732-0.262-1.539-0.219-2.24,0.12
	l-7.369,3.54c-0.396,0.188-0.831,0.287-1.271,0.29h-9.311c-0.395,0.002-0.784,0.08-1.149,0.229l-1.9,0.82
	c-1.222,0.52-2.64,0.153-3.46-0.89l0,0c-0.554-0.714-1.406-1.132-2.31-1.13h-4.7c-0.678-0.002-1.335,0.23-1.86,0.658l-2.729,2.24
	c-1.163,0.964-2.87,0.877-3.93-0.2l-0.62-0.62c-0.818-0.822-2.046-1.086-3.13-0.67l-2.722,1.052c-0.743,0.276-1.566,0.247-2.29-0.08
	l-9.568-4.44c-0.169-0.08-0.349-0.141-0.53-0.18l-7.51-1.85c-1.216-0.306-2.487,0.202-3.16,1.26l-4.721,7.358
	c-0.181,0.283-0.313,0.594-0.391,0.92l-1.43,6.25c-0.172,0.714-0.6,1.34-1.2,1.762l-3.12,2.14c-0.771,0.531-1.75,0.657-2.63,0.34
	l-6.42-2.28c-1.389-0.489-2.925,0.127-3.59,1.44l-3.38,6.32c-0.224,0.426-0.34,0.898-0.341,1.38v2.85
	c-0.006,1.315-0.884,2.467-2.149,2.82l-5.62,1.56c-0.596,0.169-1.23,0.142-1.81-0.08l-4.9-1.85c-0.414-0.159-0.858-0.221-1.3-0.18
	l-8.45,0.77c-0.913,0.089-1.814-0.26-2.43-0.938l-1-1.11c-0.417-0.467-0.977-0.783-1.59-0.9l-3.852-0.778
	c-0.795-0.151-1.617,0.024-2.28,0.488l-5.068,3.61c-0.454,0.318-0.987,0.506-1.54,0.54l-7.771,0.41
	c-0.294,0.019-0.583,0.079-0.858,0.18l-13.49,5c-0.766,0.29-1.616,0.239-2.34-0.14l-3.9-2c-0.411-0.21-0.867-0.32-1.33-0.32h-14.5
	c-0.669,0-1.317-0.229-1.84-0.649l-3.51-2.811c-1.022-0.818-2.463-0.859-3.53-0.1l-3.76,2.68c-0.771,0.552-1.229,1.441-1.23,2.39"/>
<rect x="280.93" y="502.79" opacity="0.2" fill="#F2F2F2" enable-background="new    " width="585" height="0.1"/>
<circle opacity="0.3" fill="#0078FF" enable-background="new    " cx="370.93" cy="502.84" r="5"/>
<circle opacity="0.3" fill="#0078FF" enable-background="new    " cx="443.93" cy="502.84" r="5"/>
<circle opacity="0.3" fill="#0078FF" enable-background="new    " cx="516.93" cy="502.84" r="5"/>
<circle opacity="0.3" fill="#0078FF" enable-background="new    " cx="589.93" cy="502.84" r="5"/>
<circle opacity="0.3" fill="#0078FF" enable-background="new    " cx="662.93" cy="502.84" r="5"/>
<circle opacity="0.3" fill="#0078FF" enable-background="new    " cx="735.93" cy="502.84" r="5"/>
<circle opacity="0.3" fill="#0078FF" enable-background="new    " cx="808.93" cy="502.84" r="5"/>
<path fill="none" stroke="#3F3D56" stroke-width="4" stroke-miterlimit="10" d="M239.7,695.66c-3-5.51,0.4-12.26,4.29-17.17
	c3.89-4.91,8.61-10,8.51-16.29c-0.15-9-9.7-14.32-17.33-19.09c-5.667-3.543-10.89-7.75-15.56-12.53
	c-1.954-1.838-3.572-4.004-4.78-6.4c-1.58-3.52-1.54-7.52-1.44-11.37c0.34-12.853,0.977-25.683,1.91-38.488"/>
<path fill="#0078FF" d="M200.79,573.64c0.216-4.776,2.855-9.112,7-11.5l3.14,6.21l-0.1-7.52c1.502-0.44,3.066-0.63,4.63-0.561
	c7.723,0.384,13.672,6.953,13.29,14.677c-0.383,7.723-6.954,13.672-14.676,13.289c-7.691-0.381-13.63-6.902-13.293-14.597
	L200.79,573.64L200.79,573.64z"/>
<path fill="#0078FF" d="M225.82,668.63c3.545,6.871,11.99,9.567,18.861,6.022c6.872-3.545,9.568-11.989,6.022-18.86
	c-3.545-6.872-11.989-9.568-18.861-6.022c-3.097,1.599-5.487,4.295-6.702,7.562l8.77,7.13l-9.65-2.229
	C224.264,664.457,224.798,666.651,225.82,668.63z"/>
<path fill="#0078FF" d="M232.75,641.38c7.713,0.545,14.407-5.266,14.952-12.979c0.477-6.751-3.944-12.877-10.501-14.553l0.08,5.78
	l-3.18-6.29l0,0c-7.723-0.378-14.29,5.577-14.667,13.3c-0.001,0.021-0.002,0.04-0.002,0.062c-0.083,1.619,0.121,3.24,0.6,4.79
	C221.758,637.141,226.848,641.098,232.75,641.38z"/>
<path fill="#0078FF" d="M198.68,618.71c7.727,0.284,14.221-5.749,14.504-13.477c0.284-7.728-5.75-14.222-13.476-14.505
	c-2.523-0.094-5.024,0.498-7.238,1.712l2.48,6.8l-5.1-4.9c-2.733,2.503-4.362,5.988-4.53,9.69c-0.066,1.3,0.051,2.603,0.35,3.87
	C187.109,614.003,192.417,618.413,198.68,618.71z"/>
<path fill="#656380" d="M260.87,689.32c0,0-11.08-0.34-14.42-2.722c-3.34-2.38-17-5.21-17.86-1.398c-0.86,3.81-16.65,19-4.15,19.06
	c12.5,0.062,29.06-1.95,32.4-4C260.18,698.21,260.87,689.32,260.87,689.32z"/>
<path opacity="0.2" enable-background="new    " d="M224.22,702.93c12.51,0.102,29.06-1.938,32.39-4c2.54-1.55,3.55-7.1,3.89-9.648
	h0.37c0,0-0.7,8.93-4,11c-3.3,2.068-19.89,4.08-32.4,4c-3.61,0-4.85-1.312-4.78-3.21C220.16,702.19,221.53,702.91,224.22,702.93z"/>
</svg>
